<mxfile host="app.diagrams.net" agent="Mozilla/5.0 (Windows NT 10.0; Win64; x64) AppleWebKit/537.36 (KHTML, like Gecko) Chrome/130.0.0.0 Safari/537.36" version="24.8.6">
  <diagram name="Trang-1" id="l2RPDZFa0_urVi6TWHFd">
    <mxGraphModel dx="1050" dy="565" grid="1" gridSize="10" guides="1" tooltips="1" connect="1" arrows="1" fold="1" page="1" pageScale="1" pageWidth="827" pageHeight="1169" math="0" shadow="0">
      <root>
        <mxCell id="0" />
        <mxCell id="1" parent="0" />
        <mxCell id="6pSZ4INkKlQCOLALGASV-1" value="Start" style="ellipse;whiteSpace=wrap;html=1;" vertex="1" parent="1">
          <mxGeometry x="354" y="80" width="120" height="80" as="geometry" />
        </mxCell>
        <mxCell id="6pSZ4INkKlQCOLALGASV-2" value="" style="endArrow=classic;html=1;rounded=0;exitX=0.5;exitY=1;exitDx=0;exitDy=0;entryX=0.5;entryY=0;entryDx=0;entryDy=0;" edge="1" parent="1" source="6pSZ4INkKlQCOLALGASV-1" target="6pSZ4INkKlQCOLALGASV-3">
          <mxGeometry width="50" height="50" relative="1" as="geometry">
            <mxPoint x="420" y="180" as="sourcePoint" />
            <mxPoint x="410" y="240" as="targetPoint" />
          </mxGeometry>
        </mxCell>
        <mxCell id="6pSZ4INkKlQCOLALGASV-3" value="Nhập a,b" style="shape=parallelogram;perimeter=parallelogramPerimeter;whiteSpace=wrap;html=1;fixedSize=1;" vertex="1" parent="1">
          <mxGeometry x="354" y="230" width="120" height="60" as="geometry" />
        </mxCell>
        <mxCell id="6pSZ4INkKlQCOLALGASV-5" value="a&amp;lt;b" style="rhombus;whiteSpace=wrap;html=1;" vertex="1" parent="1">
          <mxGeometry x="344" y="380" width="140" height="80" as="geometry" />
        </mxCell>
        <mxCell id="6pSZ4INkKlQCOLALGASV-8" value="" style="endArrow=classic;html=1;rounded=0;entryX=0.5;entryY=0;entryDx=0;entryDy=0;" edge="1" parent="1" target="6pSZ4INkKlQCOLALGASV-5">
          <mxGeometry width="50" height="50" relative="1" as="geometry">
            <mxPoint x="414" y="290" as="sourcePoint" />
            <mxPoint x="464" y="240" as="targetPoint" />
          </mxGeometry>
        </mxCell>
        <mxCell id="6pSZ4INkKlQCOLALGASV-12" value="a là số lớn" style="shape=parallelogram;perimeter=parallelogramPerimeter;whiteSpace=wrap;html=1;fixedSize=1;" vertex="1" parent="1">
          <mxGeometry x="474" y="525" width="120" height="60" as="geometry" />
        </mxCell>
        <mxCell id="6pSZ4INkKlQCOLALGASV-19" value="sai" style="endArrow=classic;html=1;rounded=0;entryX=0.5;entryY=0;entryDx=0;entryDy=0;" edge="1" parent="1" source="6pSZ4INkKlQCOLALGASV-5" target="6pSZ4INkKlQCOLALGASV-12">
          <mxGeometry width="50" height="50" relative="1" as="geometry">
            <mxPoint x="500" y="520" as="sourcePoint" />
            <mxPoint x="550" y="470" as="targetPoint" />
            <Array as="points">
              <mxPoint x="530" y="440" />
            </Array>
          </mxGeometry>
        </mxCell>
        <mxCell id="6pSZ4INkKlQCOLALGASV-20" value="đúng" style="endArrow=classic;html=1;rounded=0;exitX=0;exitY=1;exitDx=0;exitDy=0;entryX=0.603;entryY=0.053;entryDx=0;entryDy=0;entryPerimeter=0;" edge="1" parent="1" source="6pSZ4INkKlQCOLALGASV-5" target="6pSZ4INkKlQCOLALGASV-14">
          <mxGeometry width="50" height="50" relative="1" as="geometry">
            <mxPoint x="371.5799999999999" y="460" as="sourcePoint" />
            <mxPoint x="320" y="520" as="targetPoint" />
            <Array as="points">
              <mxPoint x="310" y="450" />
            </Array>
          </mxGeometry>
        </mxCell>
        <mxCell id="6pSZ4INkKlQCOLALGASV-21" value="End" style="ellipse;whiteSpace=wrap;html=1;aspect=fixed;" vertex="1" parent="1">
          <mxGeometry x="370" y="630" width="80" height="80" as="geometry" />
        </mxCell>
        <mxCell id="6pSZ4INkKlQCOLALGASV-22" value="" style="endArrow=classic;html=1;rounded=0;" edge="1" parent="1" target="6pSZ4INkKlQCOLALGASV-21">
          <mxGeometry width="50" height="50" relative="1" as="geometry">
            <mxPoint x="271.2830188679245" y="560.0009433962265" as="sourcePoint" />
            <mxPoint x="370" y="590.85" as="targetPoint" />
          </mxGeometry>
        </mxCell>
        <mxCell id="6pSZ4INkKlQCOLALGASV-14" value="a là số bé" style="shape=parallelogram;perimeter=parallelogramPerimeter;whiteSpace=wrap;html=1;fixedSize=1;" vertex="1" parent="1">
          <mxGeometry x="240" y="500" width="120" height="60" as="geometry" />
        </mxCell>
        <mxCell id="6pSZ4INkKlQCOLALGASV-24" value="" style="endArrow=classic;html=1;rounded=0;entryX=0.92;entryY=0.268;entryDx=0;entryDy=0;entryPerimeter=0;" edge="1" parent="1" target="6pSZ4INkKlQCOLALGASV-21">
          <mxGeometry width="50" height="50" relative="1" as="geometry">
            <mxPoint x="520" y="585" as="sourcePoint" />
            <mxPoint x="570" y="535" as="targetPoint" />
          </mxGeometry>
        </mxCell>
      </root>
    </mxGraphModel>
  </diagram>
</mxfile>
